<?xml version="1.0" standalone="no"?>
<svg xmlns:xlink="http://www.w3.org/1999/xlink" id="wave" style="transform:rotate(0deg); transition: 0.3s" viewBox="0 0 1440 310" version="1.1" xmlns="http://www.w3.org/2000/svg"><defs><linearGradient id="sw-gradient-0" x1="0" x2="0" y1="1" y2="0"><stop stop-color="rgba(142.484, 32.772, 228.049, 1)" offset="0%"/><stop stop-color="rgba(156.153, 177.642, 255, 1)" offset="100%"/></linearGradient></defs><path style="transform:translate(0, 0px); opacity:1" fill="url(#sw-gradient-0)" d="M0,186L21.8,201.5C43.6,217,87,248,131,258.3C174.5,269,218,258,262,253.2C305.5,248,349,248,393,227.3C436.4,207,480,165,524,149.8C567.3,134,611,145,655,124C698.2,103,742,52,785,56.8C829.1,62,873,124,916,160.2C960,196,1004,207,1047,217C1090.9,227,1135,238,1178,248C1221.8,258,1265,269,1309,237.7C1352.7,207,1396,134,1440,129.2C1483.6,124,1527,186,1571,217C1614.5,248,1658,248,1702,211.8C1745.5,176,1789,103,1833,93C1876.4,83,1920,134,1964,175.7C2007.3,217,2051,248,2095,253.2C2138.2,258,2182,238,2225,232.5C2269.1,227,2313,238,2356,217C2400,196,2444,145,2487,103.3C2530.9,62,2575,31,2618,51.7C2661.8,72,2705,145,2749,175.7C2792.7,207,2836,196,2880,201.5C2923.6,207,2967,227,3011,201.5C3054.5,176,3098,103,3120,67.2L3141.8,31L3141.8,310L3120,310C3098.2,310,3055,310,3011,310C2967.3,310,2924,310,2880,310C2836.4,310,2793,310,2749,310C2705.5,310,2662,310,2618,310C2574.5,310,2531,310,2487,310C2443.6,310,2400,310,2356,310C2312.7,310,2269,310,2225,310C2181.8,310,2138,310,2095,310C2050.9,310,2007,310,1964,310C1920,310,1876,310,1833,310C1789.1,310,1745,310,1702,310C1658.2,310,1615,310,1571,310C1527.3,310,1484,310,1440,310C1396.4,310,1353,310,1309,310C1265.5,310,1222,310,1178,310C1134.5,310,1091,310,1047,310C1003.6,310,960,310,916,310C872.7,310,829,310,785,310C741.8,310,698,310,655,310C610.9,310,567,310,524,310C480,310,436,310,393,310C349.1,310,305,310,262,310C218.2,310,175,310,131,310C87.3,310,44,310,22,310L0,310Z"/><defs><linearGradient id="sw-gradient-1" x1="0" x2="0" y1="1" y2="0"><stop stop-color="rgba(3.156, 16.164, 162.022, 1)" offset="0%"/><stop stop-color="rgba(202.225, 134.555, 255, 1)" offset="100%"/></linearGradient></defs><path style="transform:translate(0, 50px); opacity:0.9" fill="url(#sw-gradient-1)" d="M0,93L21.8,77.5C43.6,62,87,31,131,62C174.5,93,218,186,262,186C305.5,186,349,93,393,72.3C436.4,52,480,103,524,118.8C567.3,134,611,114,655,93C698.2,72,742,52,785,67.2C829.1,83,873,134,916,129.2C960,124,1004,62,1047,67.2C1090.9,72,1135,145,1178,160.2C1221.8,176,1265,134,1309,103.3C1352.7,72,1396,52,1440,46.5C1483.6,41,1527,52,1571,56.8C1614.5,62,1658,62,1702,87.8C1745.5,114,1789,165,1833,196.3C1876.4,227,1920,238,1964,227.3C2007.3,217,2051,186,2095,191.2C2138.2,196,2182,238,2225,258.3C2269.1,279,2313,279,2356,263.5C2400,248,2444,217,2487,196.3C2530.9,176,2575,165,2618,134.3C2661.8,103,2705,52,2749,67.2C2792.7,83,2836,165,2880,180.8C2923.6,196,2967,145,3011,103.3C3054.5,62,3098,31,3120,15.5L3141.8,0L3141.8,310L3120,310C3098.2,310,3055,310,3011,310C2967.3,310,2924,310,2880,310C2836.4,310,2793,310,2749,310C2705.5,310,2662,310,2618,310C2574.5,310,2531,310,2487,310C2443.6,310,2400,310,2356,310C2312.7,310,2269,310,2225,310C2181.8,310,2138,310,2095,310C2050.9,310,2007,310,1964,310C1920,310,1876,310,1833,310C1789.1,310,1745,310,1702,310C1658.2,310,1615,310,1571,310C1527.3,310,1484,310,1440,310C1396.4,310,1353,310,1309,310C1265.5,310,1222,310,1178,310C1134.5,310,1091,310,1047,310C1003.6,310,960,310,916,310C872.7,310,829,310,785,310C741.8,310,698,310,655,310C610.9,310,567,310,524,310C480,310,436,310,393,310C349.1,310,305,310,262,310C218.2,310,175,310,131,310C87.3,310,44,310,22,310L0,310Z"/><defs><linearGradient id="sw-gradient-2" x1="0" x2="0" y1="1" y2="0"><stop stop-color="rgba(104.656, 0, 175.682, 0.74)" offset="0%"/><stop stop-color="rgba(232.703, 121.597, 255, 0.61)" offset="100%"/></linearGradient></defs><path style="transform:translate(0, 100px); opacity:0.8" fill="url(#sw-gradient-2)" d="M0,31L21.8,72.3C43.6,114,87,196,131,211.8C174.5,227,218,176,262,144.7C305.5,114,349,103,393,103.3C436.4,103,480,114,524,124C567.3,134,611,145,655,155C698.2,165,742,176,785,165.3C829.1,155,873,124,916,129.2C960,134,1004,176,1047,170.5C1090.9,165,1135,114,1178,77.5C1221.8,41,1265,21,1309,31C1352.7,41,1396,83,1440,108.5C1483.6,134,1527,145,1571,165.3C1614.5,186,1658,217,1702,191.2C1745.5,165,1789,83,1833,46.5C1876.4,10,1920,21,1964,51.7C2007.3,83,2051,134,2095,129.2C2138.2,124,2182,62,2225,77.5C2269.1,93,2313,186,2356,196.3C2400,207,2444,134,2487,87.8C2530.9,41,2575,21,2618,20.7C2661.8,21,2705,41,2749,67.2C2792.7,93,2836,124,2880,113.7C2923.6,103,2967,52,3011,46.5C3054.5,41,3098,83,3120,103.3L3141.8,124L3141.8,310L3120,310C3098.2,310,3055,310,3011,310C2967.3,310,2924,310,2880,310C2836.4,310,2793,310,2749,310C2705.5,310,2662,310,2618,310C2574.5,310,2531,310,2487,310C2443.6,310,2400,310,2356,310C2312.7,310,2269,310,2225,310C2181.8,310,2138,310,2095,310C2050.9,310,2007,310,1964,310C1920,310,1876,310,1833,310C1789.1,310,1745,310,1702,310C1658.2,310,1615,310,1571,310C1527.3,310,1484,310,1440,310C1396.4,310,1353,310,1309,310C1265.5,310,1222,310,1178,310C1134.5,310,1091,310,1047,310C1003.6,310,960,310,916,310C872.7,310,829,310,785,310C741.8,310,698,310,655,310C610.9,310,567,310,524,310C480,310,436,310,393,310C349.1,310,305,310,262,310C218.2,310,175,310,131,310C87.3,310,44,310,22,310L0,310Z"/></svg>